<?xml version="1.0" encoding="UTF-8" standalone="no"?><!DOCTYPE svg PUBLIC "-//W3C//DTD SVG 1.1//EN" "http://www.w3.org/Graphics/SVG/1.1/DTD/svg11.dtd"><svg width="100%" height="100%" viewBox="0 0 538 534" version="1.1" xmlns="http://www.w3.org/2000/svg" xmlns:xlink="http://www.w3.org/1999/xlink" xml:space="preserve" xmlns:serif="http://www.serif.com/" style="fill-rule:evenodd;clip-rule:evenodd;stroke-linejoin:round;stroke-miterlimit:2;"><path id="lock-rounded" d="M248.11,368.646l0,50.564c0,5.285 4.521,9.569 9.745,9.569c5.382,0 9.745,-4.441 9.745,-9.569l0,-50.564c11.355,-4.013 19.49,-14.842 19.49,-27.572c0,-16.146 -13.089,-29.234 -29.235,-29.234c-16.146,-0 -29.235,13.088 -29.235,29.234c0,12.73 8.136,23.559 19.49,27.572Zm-136.429,-154.256l-0,-68.23c-0,-80.738 65.444,-146.16 146.174,-146.16c80.566,-0 146.175,65.438 146.175,146.16l0,68.23c32.337,0.092 58.47,26.317 58.47,58.654l-0,97.265c-0,85.937 -69.8,155.92 -155.902,155.92l-97.485,0c-86.008,0 -155.902,-69.807 -155.902,-155.92l-0,-97.265c-0,-32.546 26.162,-58.562 58.47,-58.654Zm58.469,-0l0,-68.199c0,-48.561 39.267,-87.721 87.705,-87.721c48.34,-0 87.705,39.274 87.705,87.721l0,68.199l-175.41,-0Z" style="fill:#3d3d3d;"/></svg>