<?xml version="1.0" encoding="UTF-8" standalone="no"?><!DOCTYPE svg PUBLIC "-//W3C//DTD SVG 1.1//EN" "http://www.w3.org/Graphics/SVG/1.1/DTD/svg11.dtd"><svg width="100%" height="100%" viewBox="0 0 538 534" version="1.1" xmlns="http://www.w3.org/2000/svg" xmlns:xlink="http://www.w3.org/1999/xlink" xml:space="preserve" xmlns:serif="http://www.serif.com/" style="fill-rule:evenodd;clip-rule:evenodd;stroke-linecap:round;stroke-linejoin:round;stroke-miterlimit:1.5;"><circle cx="270.833" cy="266.667" r="244.101" style="fill:none;"/><clipPath id="_clip1"><circle cx="270.833" cy="266.667" r="244.101"/></clipPath><g clip-path="url(#_clip1)"><path id="ion-person" d="M487.486,510.768l-433.305,0c-0,0 -0,-29.338 2.256,-45.136c2.257,-12.421 19.192,-28.219 91.41,-55.301c71.098,-25.962 67.704,-13.54 67.704,-62.071c-0,-31.595 -15.798,-12.421 -25.962,-72.217c-4.514,-23.706 -6.771,-7.908 -15.798,-45.136c-4.514,-19.192 3.394,-21.449 2.257,-30.476c-1.138,-9.027 -2.257,-18.054 -4.514,-37.246c-2.257,-23.706 20.311,-85.759 99.299,-85.759c78.988,0 101.556,62.071 99.3,85.759c-2.257,19.192 -3.395,28.219 -4.514,37.246c-1.119,9.027 6.77,11.284 2.257,30.476c-9.027,37.246 -11.284,21.448 -15.798,45.136c-10.165,59.814 -25.962,40.622 -25.962,72.217c-0,48.531 -3.394,36.109 67.704,62.071c72.217,27.082 89.153,42.88 91.409,55.301c2.257,15.798 2.257,45.136 2.257,45.136Z" style="fill:#e53935;fill-rule:nonzero;"/></g><circle cx="270.833" cy="266.667" r="244.101" style="fill:none;stroke:#2b7de9;stroke-width:25px;"/></svg>