<?xml version="1.0" encoding="UTF-8" standalone="no"?><!DOCTYPE svg PUBLIC "-//W3C//DTD SVG 1.1//EN" "http://www.w3.org/Graphics/SVG/1.1/DTD/svg11.dtd"><svg width="100%" height="100%" viewBox="0 0 538 534" version="1.1" xmlns="http://www.w3.org/2000/svg" xmlns:xlink="http://www.w3.org/1999/xlink" xml:space="preserve" xmlns:serif="http://www.serif.com/" style="fill-rule:evenodd;clip-rule:evenodd;stroke-linejoin:round;stroke-miterlimit:2;"><path id="lock-rounded-open" d="M257.143,394.868l-0,44.429c-0,4.644 4.418,8.409 9.524,8.409c5.26,0 9.523,-3.903 9.523,-8.409l0,-44.429c11.098,-3.526 19.048,-13.042 19.048,-24.227c0,-14.187 -12.792,-25.688 -28.571,-25.688c-15.78,0 -28.572,11.501 -28.572,25.688c0,11.185 7.951,20.701 19.048,24.227Zm152.381,-201.921l-0,-62.075c-0,-70.929 -64.12,-128.428 -142.857,-128.428c-78.898,0 -142.857,57.485 -142.857,128.428l-0,128.454c-31.575,0.081 -57.143,22.941 -57.143,51.539l-0,85.465c-0,75.665 68.308,137.003 152.364,137.003l95.272,0c84.148,0 152.364,-61.492 152.364,-137.003l-0,-85.465c-0,-28.414 -25.54,-51.458 -57.143,-51.539l-228.048,0c-0.346,-2.808 -0.524,-5.662 -0.524,-8.554l0,-119.896c0,-42.63 38.376,-77.055 85.715,-77.055c47.242,-0 85.714,34.498 85.714,77.055l-0,62.071c-0,17.744 12.682,32.128 28.571,32.128c15.78,0 28.572,-14.525 28.572,-32.128Z" style="fill:#3d3d3d;"/></svg>